HIERARCHY
ROOT hip
{
	OFFSET 0.000000 0.000000 0.000000
	CHANNELS 6 Xposition Yposition Zposition Xrotation Zrotation Yrotation 
	JOINT abdomen
	{
		OFFSET 0.000000 3.422050 0.000000
		CHANNELS 3 Xrotation Zrotation Yrotation 
		JOINT chest
		{
			OFFSET 0.000000 8.486693 -0.684411
			CHANNELS 3 Xrotation Zrotation Yrotation 
			JOINT neck
			{
				OFFSET 0.000000 10.266162 -0.273764
				CHANNELS 3 Xrotation Zrotation Yrotation 
				JOINT head
				{
					OFFSET 0.000000 3.148285 0.000000
					CHANNELS 3 Xrotation Zrotation Yrotation 
					End Site
					{
						OFFSET 0.000000 3.148289 0.000000
					}
				}
			}
			JOINT lCollar
			{
				OFFSET 3.422053 6.707223 -0.821293
				CHANNELS 3 Yrotation Zrotation Xrotation 
				JOINT lShldr
				{
					OFFSET 3.285171 0.000000 0.000000
					CHANNELS 3 Zrotation Yrotation Xrotation 
					JOINT lForeArm
					{
						OFFSET 10.129278 0.000000 0.000000
						CHANNELS 3 Yrotation Zrotation Xrotation 
						JOINT lHand
						{
							OFFSET 8.486692 0.000000 0.000000
							CHANNELS 3 Zrotation Yrotation Xrotation 
							End Site
							{
								OFFSET 4.106464 0.000000 0.000000
							}
						}
					}
				}
			}
			JOINT rCollar
			{
				OFFSET -3.558935 6.707223 -0.821293
				CHANNELS 3 Yrotation Zrotation Xrotation 
				JOINT rShldr
				{
					OFFSET -3.148289 0.000000 0.000000
					CHANNELS 3 Zrotation Yrotation Xrotation 
					JOINT rForeArm
					{
						OFFSET -10.266159 0.000000 0.000000
						CHANNELS 3 Yrotation Zrotation Xrotation 
						JOINT rHand
						{
							OFFSET -8.349810 0.000000 0.000000
							CHANNELS 3 Zrotation Yrotation Xrotation 
							End Site
							{
								OFFSET -4.106464 0.000000 0.000000
							}
						}
					}
				}
			}
		}
	}
	JOINT lThigh
	{
		OFFSET 5.338403 -1.642589 1.368821
		CHANNELS 3 Xrotation Zrotation Yrotation 
		JOINT lShin
		{
			OFFSET -2.053232 -20.121670 0.000000
			CHANNELS 3 Xrotation Zrotation Yrotation 
			JOINT lFoot
			{
				OFFSET 0.000000 -19.300380 -1.231939
				CHANNELS 3 Xrotation Yrotation Zrotation 
				End Site
				{
					OFFSET 0.000000 -2.463878 4.653993
				}
			}
		}
	}
	JOINT rThigh
	{
		OFFSET -5.338403 -1.642589 1.368821
		CHANNELS 3 Xrotation Zrotation Yrotation 
		JOINT rShin
		{
			OFFSET 2.053232 -20.121670 0.000000
			CHANNELS 3 Xrotation Zrotation Yrotation 
			JOINT rFoot
			{
				OFFSET 0.000000 -19.300380 -1.231939
				CHANNELS 3 Xrotation Yrotation Zrotation 
				End Site
				{
					OFFSET 0.000000 -2.463878 4.653993
				}
			}
		}
	}
}
MOTION
Frames: 11
Frame Time: 0.049897
0.000000 43.528500 0.000000 0.000000 0.000000 0.000000 0.000000 0.000000 0.000000 0.000000 0.000000 0.000000 0.000000 0.000000 0.000000 0.000000 0.000000 0.000000 0.000000 0.000000 0.000000 0.000000 0.000000 0.000000 0.000000 0.000000 0.000000 0.000000 0.000000 0.000000 0.000000 0.000000 0.000000 0.000000 0.000000 0.000000 0.000000 0.000000 0.000000 0.000000 0.000000 0.000000 0.000000 0.000000 0.000000 0.000000 0.000000 0.000000 0.000000 0.000000 0.000000 0.000000 0.000000 0.000000 0.000000 0.000000 0.000000 0.000000 0.000000 0.000000 
-30.004339 17.999720 11.999940 -0.002369 -7.002477 89.998291 59.998737 0.001354 16.996748 19.998522 -0.003662 -25.000811 -27.000286 0.000000 0.000000 -12.001280 0.000000 0.000000 0.000000 0.000000 -10.002190 75.006844 -71.999451 -60.009720 -11.003080 0.000000 0.000000 54.996658 0.000000 0.000000 0.000000 0.000000 -10.002190 -30.000353 71.996437 -60.000309 31.999252 -0.000629 19.999790 -46.002518 -0.002117 30.000530 -32.002014 7.997613 -12.001884 112.994598 0.000000 0.000000 66.999611 0.000001 -0.000001 -32.000767 -10.002048 4.997875 109.999611 -0.000001 0.000001 66.999611 0.000001 -0.000001 
-30.004339 17.999720 11.999940 -0.002369 -7.002477 89.998291 60.454475 0.001314 16.996817 19.998522 -0.003662 -25.000811 -27.000286 0.000000 0.000000 -12.001280 0.000000 0.000000 -0.021207 -0.013582 -9.997245 75.854065 -70.867508 -60.078945 -11.003080 0.000000 0.000000 54.575768 0.075737 -0.592270 0.000000 0.000000 -10.002190 -32.143265 70.856705 -61.035049 31.999262 -0.000717 18.878048 -45.717167 -0.002114 30.000509 -32.002014 7.997613 -12.001884 112.994591 0.000000 0.000000 66.999611 0.000001 -0.000001 -32.000767 -10.002048 4.997875 109.999603 -0.000001 0.000001 66.999611 0.000001 -0.000001 
-30.004339 17.999720 11.999940 -0.002370 -7.002478 89.998299 60.910446 0.001273 16.996885 19.998522 -0.003662 -25.000811 -27.000286 0.000000 0.000000 -12.001281 0.000000 0.000000 -0.042414 -0.027167 -9.992300 76.655746 -69.729721 -60.096123 -11.003080 0.000000 0.000000 54.153545 0.147212 -1.185888 0.000000 0.000000 -10.002190 -34.121059 69.699280 -61.894554 31.999269 -0.000806 17.752642 -45.431747 -0.002113 30.000490 -32.002014 7.997612 -12.001885 112.994606 0.000000 0.000000 66.999611 0.000001 -0.000001 -32.000767 -10.002048 4.997875 109.999626 -0.000001 0.000001 66.999611 0.000001 -0.000001 
-30.004339 17.999720 11.999940 -0.002369 -7.002478 89.998299 61.366653 0.001234 16.996954 19.998522 -0.003662 -25.000811 -27.000286 0.000000 0.000000 -12.001280 0.000000 0.000000 -0.063620 -0.040753 -9.987364 77.419228 -68.586624 -60.068592 -11.003080 0.000000 0.000000 53.730049 0.214389 -1.780778 0.000000 0.000000 -10.002190 -35.958202 68.526726 -62.603390 31.999275 -0.000894 16.623775 -45.146278 -0.002111 30.000469 -32.002014 7.997614 -12.001885 112.994598 0.000000 0.000000 66.999611 0.000001 -0.000001 -32.000767 -10.002048 4.997875 109.999611 -0.000001 0.000001 66.999611 0.000001 -0.000001 
-30.004339 17.999720 11.999940 -0.002368 -7.002477 89.998276 61.823063 0.001193 16.997019 19.998522 -0.003662 -25.000811 -27.000286 0.000000 0.000000 -12.001281 0.000000 0.000000 -0.084825 -0.054342 -9.982430 78.150482 -67.438644 -60.002319 -11.003080 0.000000 0.000000 53.305386 0.277236 -2.376864 0.000000 0.000000 -10.002190 -37.674805 67.341080 -63.181717 31.999287 -0.000983 15.491653 -44.860760 -0.002109 30.000448 -32.002010 7.997613 -12.001884 112.994598 0.000000 0.000000 66.999611 0.000001 -0.000001 -32.000767 -10.002048 4.997875 109.999611 -0.000001 0.000001 66.999611 0.000001 -0.000001 
-30.004339 17.999720 11.999940 -0.002368 -7.002477 89.998276 62.279675 0.001149 16.997086 19.998522 -0.003662 -25.000811 -27.000286 0.000000 0.000000 -12.001280 0.000000 0.000000 -0.106030 -0.067933 -9.977505 78.854370 -66.286331 -59.902153 -11.003080 0.000000 0.000000 52.879608 0.335723 -2.974068 0.000000 0.000000 -10.002189 -39.287804 66.144318 -63.646591 31.999290 -0.001072 14.356476 -44.575207 -0.002105 30.000439 -32.002010 7.997613 -12.001884 112.994598 0.000000 0.000000 66.999611 0.000001 -0.000001 -32.000767 -10.002047 4.997875 109.999611 -0.000001 0.000001 66.999611 0.000001 -0.000001 
-30.004339 17.999720 11.999940 -0.002369 -7.002477 89.998291 62.736469 0.001110 16.997152 19.998522 -0.003662 -25.000811 -27.000286 0.000000 0.000000 -12.001281 0.000000 0.000000 -0.127234 -0.081526 -9.972581 79.534927 -65.130127 -59.772148 -11.003080 0.000000 0.000000 52.452793 0.389821 -3.572312 0.000000 0.000000 -10.002190 -40.811211 64.938133 -64.012115 31.999290 -0.001162 13.218458 -44.289597 -0.002102 30.000422 -32.002014 7.997612 -12.001885 112.994598 0.000000 0.000000 66.999611 0.000001 -0.000001 -32.000767 -10.002048 4.997875 109.999611 -0.000001 0.000001 66.999611 0.000001 -0.000001 
-30.004339 17.999720 11.999940 -0.002369 -7.002477 89.998291 63.193417 0.001066 16.997215 19.998522 -0.003662 -25.000811 -27.000286 0.000000 0.000000 -12.001280 0.000000 0.000000 -0.148438 -0.095122 -9.967665 80.195511 -63.970520 -59.615654 -11.003080 0.000000 0.000000 52.025032 0.439503 -4.171516 0.000000 0.000000 -10.002190 -42.256874 63.724113 -64.290276 31.999292 -0.001252 12.077818 -44.003941 -0.002101 30.000404 -32.002014 7.997613 -12.001884 112.994598 0.000000 0.000000 66.999611 0.000001 -0.000001 -32.000767 -10.002047 4.997875 109.999619 -0.000001 0.000001 66.999611 0.000001 -0.000001 
-30.004339 17.999720 11.999940 -0.002369 -7.002477 89.998291 63.650539 0.001022 16.997284 19.998522 -0.003662 -25.000811 -27.000286 0.000000 0.000000 -12.001281 0.000000 0.000000 -0.169641 -0.108719 -9.962753 80.838943 -62.807987 -59.435493 -11.003080 0.000000 0.000000 51.596401 0.484746 -4.771601 0.000000 0.000000 -10.002190 -43.634689 62.503593 -64.491051 31.999292 -0.001342 10.934767 -43.718254 -0.002098 30.000387 -32.002014 7.997613 -12.001884 112.994598 0.000000 0.000000 66.999611 0.000001 -0.000001 -32.000767 -10.002048 4.997875 109.999611 -0.000001 0.000001 66.999611 0.000001 -0.000001 
-30.004339 17.999720 11.999940 -0.002369 -7.002478 89.998299 64.107796 0.000978 16.997353 19.998522 -0.003662 -25.000811 -27.000286 0.000000 0.000000 -12.001280 0.000000 0.000000 -0.190844 -0.122319 -9.957843 81.467598 -61.642979 -59.234043 -11.003080 0.000000 0.000000 51.166973 0.525526 -5.372484 0.000000 0.000000 -10.002190 -44.953217 61.278011 -64.623177 31.999287 -0.001433 9.789529 -43.432537 -0.002094 30.000366 -32.002014 7.997614 -12.001885 112.994598 0.000000 0.000000 66.999611 0.000001 -0.000001 -32.000767 -10.002048 4.997875 109.999611 -0.000001 0.000001 66.999611 0.000001 -0.000001 
